<svg xmlns="http://www.w3.org/2000/svg" viewBox="0 0 1000 641" fill="currentColor" role="img" aria-label="LAUREN"><path fill-rule="evenodd" d="M124.3 178.6L213.6 178.6L223.6 182.9L470.0 429.3L475.7 432.9L482.9 432.9L488.6 429.3L553.6 365.0L557.9 366.4L588.6 397.1L589.3 400.7L495.7 495.7L484.3 502.9L472.1 502.1L462.9 495.7L162.9 195.0L150.7 190.0L123.6 190.0L120.7 187.1L120.7 181.4Z M477.9 0.0L480.7 6.4L481.4 38.6L473.6 55.7L363.6 165.0L356.4 177.9L357.9 186.4L363.6 194.3L444.3 275.0L470.7 300.0L475.7 302.1L485.0 301.4L508.6 280.7L605.0 183.6L615.7 178.6L654.3 178.6L659.3 180.7L656.4 187.1L492.9 350.7L482.9 355.7L472.9 355.0L465.7 350.7L307.9 192.9L302.9 182.1L303.6 174.3L308.6 165.7L470.7 3.6Z M745.0 178.6L834.3 178.6L837.1 180.0L837.9 185.7L832.1 190.0L807.9 190.0L795.7 195.0L618.6 372.9L611.4 372.9L578.6 337.9L732.1 185.0Z M517.1 524.3L619.3 524.3L632.9 528.6L637.9 534.3L640.0 543.6L640.0 577.9L637.9 586.4L627.9 595.0L600.0 597.9L650.0 639.3L613.6 640.0L571.4 600.7L562.1 596.4L549.3 596.4L542.1 599.3L540.0 640.0L520.0 640.7L515.0 638.6L514.3 527.1Z M541.4 546.4L541.4 574.3L543.6 576.4L605.7 576.4L612.9 572.1L613.6 551.4L610.0 545.7Z M866.4 524.3L878.6 524.3L887.9 528.6L974.3 602.1L975.0 527.1L977.1 524.3L999.3 525.0L999.3 639.3L987.1 640.7L972.9 634.3L888.6 562.1L887.9 637.9L884.3 640.7L865.7 639.3L863.6 635.0L862.9 530.0Z M695.0 524.3L811.4 525.0L811.4 544.3L722.1 545.7L721.4 562.9L724.3 568.6L774.3 570.0L775.0 586.4L770.0 590.0L723.6 590.0L721.4 592.1L721.4 615.7L727.1 618.6L810.0 617.9L814.3 621.4L812.9 638.6L806.4 640.7L696.4 640.0L694.3 637.9Z M327.1 524.3L350.0 524.3L352.9 528.6L352.1 610.0L354.3 617.9L427.9 617.1L428.6 528.6L431.4 524.3L455.0 525.7L456.4 615.0L451.4 633.6L441.4 639.3L429.3 640.7L352.9 640.7L332.9 636.4L327.1 628.6L325.0 617.9L325.0 527.1Z M202.9 523.6L216.4 524.3L222.1 527.1L230.0 535.7L288.6 640.0L257.9 639.3L246.4 617.9L242.1 615.0L173.6 615.0L169.3 617.9L157.9 639.3L131.4 640.0L192.9 529.3L195.7 525.7Z M203.6 555.7L183.6 592.9L232.1 592.9L209.3 548.6L207.9 547.9Z M2.9 524.3L25.0 524.3L27.9 528.6L27.9 617.9L112.9 618.6L114.3 636.4L112.1 639.3L4.3 640.7L0.7 638.6L0.0 527.9Z"/></svg>